<?xml version="1.0" standalone="no"?>
<!DOCTYPE svg PUBLIC "-//W3C//DTD SVG 20010904//EN"
 "http://www.w3.org/TR/2001/REC-SVG-20010904/DTD/svg10.dtd">
<svg version="1.0" xmlns="http://www.w3.org/2000/svg"
 width="150.000000pt" height="60.000000pt" viewBox="0 0 150.000000 60.000000"
 preserveAspectRatio="xMidYMid meet">
<metadata>
Created by potrace 1.10, written by Peter Selinger 2001-2011
</metadata>
<g transform="translate(0.000000,60.000000) scale(0.100000,-0.100000)"
fill="#000000" stroke="none">
<path d="M145 363 c-10 -21 -20 -32 -22 -25 -3 6 -12 12 -20 12 -11 0 -13 -5
-8 -17 4 -10 10 -30 13 -45 5 -33 32 -38 32 -5 0 12 11 42 25 66 29 50 29 51
12 51 -7 0 -21 -17 -32 -37z"/>
<path d="M236 384 c-8 -20 -8 -88 0 -108 9 -23 109 -23 118 0 8 20 8 88 0 108
-9 23 -109 23 -118 0z m96 -15 c2 -5 2 -28 0 -50 -4 -37 -6 -39 -38 -39 l-34
0 0 50 0 50 34 0 c19 0 36 -5 38 -11z"/>
<path d="M402 333 l3 -68 50 -3 c62 -4 75 11 75 85 0 40 -4 53 -15 53 -10 0
-15 -15 -17 -57 -3 -57 -3 -58 -35 -61 -28 -3 -33 1 -39 22 -3 15 -3 42 0 61
6 28 4 35 -9 35 -13 0 -15 -11 -13 -67z"/>
<path d="M560 391 c0 -5 21 -11 48 -13 34 -2 47 -7 47 -18 0 -11 -13 -16 -48
-18 l-48 -3 3 -42 c4 -50 22 -56 26 -9 4 43 30 42 60 -3 12 -19 27 -35 32 -35
14 0 12 12 -6 38 -12 18 -13 26 -4 37 6 8 10 26 8 42 -3 27 -6 28 -60 31 -34
2 -58 -1 -58 -7z"/>
<path d="M827 343 c6 -83 6 -83 63 -83 61 0 67 18 8 22 l-43 3 -3 58 c-2 38
-7 57 -16 57 -9 0 -12 -15 -9 -57z"/>
<path d="M982 388 c-17 -17 -16 -103 2 -117 8 -7 36 -11 63 -9 l48 3 0 65 0
65 -50 3 c-30 2 -55 -2 -63 -10z m93 -58 c0 -45 0 -45 -37 -48 l-38 -3 0 44
c0 52 5 59 45 55 29 -3 30 -5 30 -48z"/>
<path d="M1146 384 c-8 -20 -8 -88 0 -108 5 -12 20 -16 59 -16 l53 0 4 40 4
40 -38 0 c-21 0 -38 -4 -38 -10 0 -5 11 -10 25 -10 18 0 25 -5 25 -20 0 -16
-7 -20 -35 -20 -29 0 -36 4 -41 25 -3 14 -3 36 0 50 6 22 11 25 56 25 28 0 50
5 50 10 0 6 -26 10 -59 10 -44 0 -60 -4 -65 -16z"/>
<path d="M1312 388 c-17 -17 -16 -103 2 -117 8 -7 36 -11 63 -9 l48 3 0 65 0
65 -50 3 c-30 2 -55 -2 -63 -10z m93 -58 c0 -45 0 -45 -37 -48 l-38 -3 0 44
c0 52 5 59 45 55 29 -3 30 -5 30 -48z"/>
</g>
</svg>
